<svg id="레이어_1" data-name="레이어 1" xmlns="http://www.w3.org/2000/svg" viewBox="0 0 100 50"><path d="M29.65,26.73h3.29a6.1,6.1,0,0,1-3.71,5l.45.64a6.74,6.74,0,0,0,4.07-6.31h-4.1Z"/><polygon points="36.06 25.09 35.25 25.09 35.25 34.06 36.06 34.06 36.06 29.41 37.5 29.41 37.5 28.73 36.06 28.73 36.06 25.09"/><path d="M40.15,23h4.94c-.29,3.19-2.13,5.76-5.57,7.49l.68,1c4.35-2.18,6.1-5.64,6.1-9.46H40.15Z"/><polygon points="67.89 23.22 67.89 15.94 66.25 15.94 66.25 33.88 67.89 33.88 67.89 24.58 70.77 24.58 70.77 23.22 67.89 23.22"/><polygon points="49.78 20.57 48.55 20.57 48.55 34.02 49.78 34.02 49.78 27.04 51.94 27.04 51.94 26.03 49.78 26.03 49.78 20.57"/><path d="M55.05,19.22h6.58c-.38,4.24-2.84,7.68-7.42,10l.9,1.28c5.8-2.9,8.14-7.52,8.14-12.62h-8.2Z"/></svg>