<svg id="레이어_1" data-name="레이어 1" xmlns="http://www.w3.org/2000/svg" viewBox="0 0 100 50"><path d="M71.07,12.27v-.75c-.94,0-10.88,0-11,0H59.7V37.73H48.61v.75H60.45V12.27C62.31,12.28,70.21,12.29,71.07,12.27Z"/><path d="M27.49,20.21h5.26c-.3,3.39-2.27,6.15-5.94,8l.72,1c4.64-2.32,6.52-6,6.52-10.1H27.49Z"/><polygon points="37.76 17.59 36.45 17.59 36.45 31.94 37.76 31.94 37.76 24.5 40.06 24.5 40.06 23.41 37.76 23.41 37.76 17.59"/><polygon points="52.8 24.41 55.1 24.41 55.1 23.32 52.8 23.32 52.8 17.59 51.49 17.59 51.49 31.94 52.8 31.94 52.8 24.41"/><path d="M50.14,26.56a32.29,32.29,0,0,1-6.51.64V19h-1.3v9.33h1.14a33.26,33.26,0,0,0,6.83-.66Z"/><polygon points="76.48 23.25 76.48 17.59 75.17 17.59 75.17 31.97 76.48 31.97 76.48 24.34 78.85 24.34 78.85 23.25 76.48 23.25"/><path d="M67.36,27.27V20.05h5.36V19H66.05v9.43h1.13A34.56,34.56,0,0,0,74,27.88l-.15-1.09A34.69,34.69,0,0,1,67.36,27.27Z"/></svg>