<svg id="레이어_1" data-name="레이어 1" xmlns="http://www.w3.org/2000/svg" viewBox="0 0 100 50"><path d="M30,20.43h5.26c-.9,3.39-3.35,6.15-7.34,8l.54,1c5.05-2.32,7.57-6,8.29-10.1H30.14Z"/><path d="M46.31,19.2H45l-1.64,9.33H44.5a34.85,34.85,0,0,0,7-.66l0-1.09a33.91,33.91,0,0,1-6.62.64Z"/><polygon points="40.68 17.81 39.37 17.81 36.84 32.16 38.15 32.16 39.46 24.72 41.77 24.72 41.96 23.63 39.66 23.63 40.68 17.81"/><polygon points="69.76 23.47 70.76 17.81 69.45 17.81 66.92 32.19 68.23 32.19 69.57 24.56 71.94 24.56 72.13 23.47 69.76 23.47"/><polygon points="55.72 17.81 54.41 17.81 51.88 32.16 53.19 32.16 54.52 24.62 56.83 24.62 57.02 23.54 54.71 23.54 55.72 17.81"/><path d="M58.43,28.61h1.13a36,36,0,0,0,6.88-.51l0-1.09a36.18,36.18,0,0,1-6.55.48l1.27-7.22h5.36l.19-1.09H60.09Z"/></svg>