<svg id="레이어_1" data-name="레이어 1" xmlns="http://www.w3.org/2000/svg" viewBox="0 0 100 50"><polygon points="45.56 18.29 43.26 18.29 43.26 12.47 41.95 12.47 41.95 26.82 43.26 26.82 43.26 19.38 45.56 19.38 45.56 18.29"/><path d="M33,15.09h5.26c-.3,3.39-2.27,6.15-5.93,8l.72,1c4.64-2.32,6.51-6,6.51-10.1H33Z"/><path d="M56.21,22.08V13.86H54.92v9.33h1.13a33.19,33.19,0,0,0,6.83-.66l-.16-1.09A32.22,32.22,0,0,1,56.21,22.08Z"/><polygon points="65.38 18.2 65.38 12.47 64.07 12.47 64.07 26.82 65.38 26.82 65.38 19.28 67.68 19.28 67.68 18.2 65.38 18.2"/><rect x="55.55" y="29.53" width="0.75" height="8"/><polygon points="45.94 29.53 45.19 29.53 45.19 37.53 45.94 37.53 45.94 33.91 55.55 33.91 55.55 33.16 45.94 33.16 45.94 29.53"/></svg>