<svg id="레이어_1" data-name="레이어 1" xmlns="http://www.w3.org/2000/svg" viewBox="0 0 100 50"><rect x="60.05" y="40.36" width="8" height="0.75"/><polygon points="60.05 19.7 60.05 20.45 63.68 20.45 63.68 40.37 64.43 40.37 64.43 20.45 68.06 20.45 68.06 19.7 60.05 19.7"/><path d="M52.22,17.15l-.14-.95a28.4,28.4,0,0,1-5.7.56V9.56H45.25v8.16h1A29.65,29.65,0,0,0,52.22,17.15Z"/><path d="M32,17.63l.63.89a9.43,9.43,0,0,0,5.69-8.83H32.53v1h4.61C36.87,13.61,35.15,16,32,17.63Z"/><polygon points="41.52 14.39 43.53 14.39 43.53 13.44 41.52 13.44 41.52 8.35 40.37 8.35 40.37 20.9 41.52 20.9 41.52 14.39"/><polygon points="54.4 14.31 56.41 14.31 56.41 13.36 54.4 13.36 54.4 8.35 53.25 8.35 53.25 20.9 54.4 20.9 54.4 14.31"/><path d="M32.55,31.39h4.61c-.27,3-2,5.38-5.2,7l.63.89c4.06-2,5.7-5.26,5.7-8.83H32.55Z"/><polygon points="54.41 29.1 53.27 29.1 53.27 41.65 54.41 41.65 54.41 35.06 56.43 35.06 56.43 34.11 54.41 34.11 54.41 29.1"/><path d="M46.39,37.51V30.32H45.26v8.16h1a28.92,28.92,0,0,0,6-.58L52.09,37A28.33,28.33,0,0,1,46.39,37.51Z"/><polygon points="41.53 29.1 40.39 29.1 40.39 41.65 41.53 41.65 41.53 35.14 43.55 35.14 43.55 34.19 41.53 34.19 41.53 29.1"/></svg>