<svg id="레이어_1" data-name="레이어 1" xmlns="http://www.w3.org/2000/svg" viewBox="0 0 100 50"><rect x="40.5" y="14.75" width="26.21" height="1.5"/><rect x="40.5" y="24.21" width="26.21" height="1.5"/><rect x="40.5" y="33.67" width="26.21" height="1.5"/><path d="M34.92,18.07h1V13H35.1a1.73,1.73,0,0,1-.61.8,2.67,2.67,0,0,1-.81.47v.87a3.37,3.37,0,0,0,1.24-.73Z"/><path d="M34.71,25.31a6.83,6.83,0,0,0-1.09,1.2,2.32,2.32,0,0,0-.32,1h3.36v-.89h-1.9a1.93,1.93,0,0,1,.19-.27c.08-.09.28-.27.58-.55a7,7,0,0,0,.63-.64,2.75,2.75,0,0,0,.38-.64,1.73,1.73,0,0,0,.12-.64,1.33,1.33,0,0,0-.42-1,1.61,1.61,0,0,0-1.17-.4,1.78,1.78,0,0,0-1.12.35,1.59,1.59,0,0,0-.54,1.14l1,.09a.87.87,0,0,1,.2-.6.65.65,0,0,1,.48-.18.69.69,0,0,1,.48.17.69.69,0,0,1,.17.49,1.07,1.07,0,0,1-.2.59A6.26,6.26,0,0,1,34.71,25.31Z"/><path d="M35.77,34.18a1.17,1.17,0,0,0,.72-1,1.22,1.22,0,0,0-.35-.84A1.51,1.51,0,0,0,35,31.84a1.64,1.64,0,0,0-.74.16,1.11,1.11,0,0,0-.52.43,1.84,1.84,0,0,0-.28.72l.88.15a.89.89,0,0,1,.21-.5.61.61,0,0,1,.43-.17.53.53,0,0,1,.55.56.59.59,0,0,1-.21.47.82.82,0,0,1-.59.17l-.11.78a2.08,2.08,0,0,1,.44-.07.63.63,0,0,1,.48.21.85.85,0,0,1,.19.58.91.91,0,0,1-.2.61.66.66,0,0,1-.5.22.65.65,0,0,1-.48-.19.85.85,0,0,1-.23-.54l-.93.11a1.49,1.49,0,0,0,.52,1A1.63,1.63,0,0,0,35,37a1.66,1.66,0,0,0,1.2-.47,1.5,1.5,0,0,0,.48-1.12,1.23,1.23,0,0,0-.25-.78A1.19,1.19,0,0,0,35.77,34.18Z"/></svg>