<svg id="레이어_1" data-name="레이어 1" xmlns="http://www.w3.org/2000/svg" viewBox="0 0 100 50"><polygon points="33.37 16.93 32.63 16.93 32.63 33.07 33.37 33.07 33.37 24.7 34.66 24.7 34.66 23.48 33.37 23.48 33.37 16.93"/><path d="M36.78,19.88H42.7c-.34,3.82-2.56,6.91-6.68,9L36.83,30c5.22-2.61,7.33-6.77,7.33-11.36H36.78Z"/><path d="M27.59,19.88h3c-.17,3.82-1.28,6.91-3.34,9l.4,1.15c2.61-2.61,3.67-6.77,3.67-11.36H27.59Z"/><path d="M53,19.88h8.29c-.47,3.82-3.57,6.91-9.34,9L53.06,30c7.31-2.61,10.26-6.77,10.26-11.36H53Z"/><polygon points="69.16 23.48 69.16 16.93 67.1 16.93 67.1 33.07 69.16 33.07 69.16 24.7 72.79 24.7 72.79 23.48 69.16 23.48"/><polygon points="48.33 16.93 46.86 16.93 46.86 33.07 48.33 33.07 48.33 24.7 50.92 24.7 50.92 23.48 48.33 23.48 48.33 16.93"/></svg>